# File created by Blade
# Date/Time:  Wed Jan 21 17:57:11 2015
# Frame Rate: 120.000 fps
#------------------------------------------------------
:FULLY-SPECIFIED
:DEGREES
613
root 19.234052 28.681367 -15.749245 -99.529885 2.239067 -180.238913
Spine 65.440949 1.577351 -1.725468
Head 187.044466 0.968507 184.993026
LeftShoulder 27.552244 -51.081724 12.204489
LeftArm 11.061158 8.227088 -5.024891
LeftForeArm 49.138649 -0.000000 79.534106
LeftHand 3.720042 -0.000000 45.949952
LeftHandThumb1 -26.253704 0.000000 33.147579
RightShoulder 18.026666 9.965348 -26.430439
RightArm 2.207368 37.852564 5.688605
RightForeArm -64.300915 -0.000000 84.327585
RightHand 3.031927 0.000000 -50.706200
RightHandThumb1 -24.326973 -0.000000 -32.862282
LeftUpLeg -80.561537 34.091159 3.091118
LeftLeg -5.644616 -0.000000 0.000000
LeftFoot -12.236367 16.958652 -24.098293
LeftToeBase 32.473898 -0.000000 -0.000000
RightUpLeg -86.366649 -34.771172 1.772733
RightLeg -5.448074 -0.000000 0.000000
RightFoot -6.093132 -3.905133 32.138060
RightToeBase 28.667078 -0.000000 -0.000000
614
root 19.235305 28.678355 -15.733091 -99.581387 2.287196 -180.243882
Spine 65.415711 1.578506 -1.756759
Head 186.885036 1.053848 185.042498
LeftShoulder 27.333090 -50.702852 12.182421
LeftArm 11.312448 8.856758 -4.897484
LeftForeArm 49.077750 0.000000 79.139814
LeftHand 4.088679 0.000000 46.781179
LeftHandThumb1 -26.253704 0.000000 33.147579
RightShoulder 17.950508 9.409142 -26.199428
RightArm 2.402479 37.469848 5.607056
RightForeArm -64.102129 -0.000000 83.604173
RightHand 3.407761 -0.000000 -51.096154
RightHandThumb1 -24.326973 -0.000000 -32.862282
LeftUpLeg -80.532374 34.094738 3.129333
LeftLeg -5.567194 -0.000000 0.000000
LeftFoot -12.253738 16.969131 -24.098933
LeftToeBase 32.402661 -0.000000 -0.000000
RightUpLeg -86.308886 -34.768141 1.652774
RightLeg -5.459841 -0.000000 0.000000
RightFoot -6.090476 -3.876057 32.174678
RightToeBase 28.568119 -0.000000 -0.000000
615
root 19.238934 28.676057 -15.718355 -99.629508 2.318232 -180.250710
Spine 65.405261 1.573366 -1.761189
Head 186.741193 1.168973 185.100598
LeftShoulder 27.092548 -50.298543 12.216095
LeftArm 11.517556 9.436485 -4.799742
LeftForeArm 49.139856 -0.000000 78.715794
LeftHand 4.542775 0.000000 47.555129
LeftHandThumb1 -26.253704 0.000000 33.147579
RightShoulder 17.923198 9.021668 -26.021381
RightArm 2.468242 36.948374 5.588357
RightForeArm -64.060921 -0.000000 82.914449
RightHand 3.723484 0.000000 -51.780615
RightHandThumb1 -24.326973 -0.000000 -32.862282
LeftUpLeg -80.527375 34.100650 3.153641
LeftLeg -5.475684 -0.000000 0.000000
LeftFoot -12.276898 16.942069 -24.146431
LeftToeBase 32.384221 -0.000000 -0.000000
RightUpLeg -86.266563 -34.772155 1.576108
RightLeg -5.461894 -0.000000 0.000000
RightFoot -6.072107 -3.829246 32.192473
RightToeBase 28.514788 -0.000000 -0.000000
616
root 19.243772 28.672027 -15.708381 -99.727561 2.343824 -180.240831
Spine 65.503892 1.583365 -1.736216
Head 186.727299 1.216048 185.087076
LeftShoulder 26.807993 -49.947554 12.283372
LeftArm 11.755547 10.081438 -4.706710
LeftForeArm 49.114810 0.000000 78.235635
LeftHand 4.911897 0.000000 48.453987
LeftHandThumb1 -26.253704 0.000000 33.147579
RightShoulder 17.845054 8.650426 -25.843959
RightArm 2.542669 36.374927 5.518685
RightForeArm -63.944913 0.000000 82.198119
RightHand 3.999632 0.000000 -52.150081
RightHandThumb1 -24.326973 -0.000000 -32.862282
LeftUpLeg -80.389590 34.119093 3.274956
LeftLeg -5.453769 -0.000000 0.000000
LeftFoot -12.291950 16.976373 -24.181374
LeftToeBase 32.376611 -0.000000 -0.000000
RightUpLeg -86.156359 -34.764094 1.476573
RightLeg -5.461556 -0.000000 0.000000
RightFoot -6.088201 -3.777727 32.232951
RightToeBase 28.584351 -0.000000 -0.000000
617
root 19.251325 28.668222 -15.698795 -99.844674 2.358412 -180.212544
Spine 65.624154 1.598020 -1.735120
Head 186.666352 1.235349 185.095387
LeftShoulder 26.475094 -49.502079 12.430503
LeftArm 11.962515 10.688228 -4.560451
LeftForeArm 48.990566 -0.000000 77.709465
LeftHand 5.446063 -0.000000 49.417573
LeftHandThumb1 -26.253704 0.000000 33.147579
RightShoulder 17.728848 8.171801 -25.691817
RightArm 2.789107 35.866729 5.485406
RightForeArm -63.961854 0.000000 81.375442
RightHand 4.415832 -0.000000 -52.466479
RightHandThumb1 -24.326973 -0.000000 -32.862282
LeftUpLeg -80.255331 34.161349 3.378487
LeftLeg -5.426040 -0.000000 0.000000
LeftFoot -12.309294 16.962323 -24.266365
LeftToeBase 32.423588 -0.000000 -0.000000
RightUpLeg -86.027150 -34.735414 1.374559
RightLeg -5.442331 -0.000000 0.000000
RightFoot -6.100786 -3.694211 32.228619
RightToeBase 28.558713 -0.000000 -0.000000
618
root 19.258278 28.664920 -15.685945 -99.931308 2.389994 -180.185579
Spine 65.710168 1.621186 -1.741018
Head 186.622245 1.217752 185.072012
LeftShoulder 26.186107 -49.108896 12.542976
LeftArm 12.187934 11.382341 -4.417734
LeftForeArm 48.957779 -0.000000 77.122971
LeftHand 6.109129 -0.000000 50.399089
LeftHandThumb1 -26.253704 0.000000 33.147579
RightShoulder 17.570686 7.622259 -25.524304
RightArm 3.096457 35.361470 5.432702
RightForeArm -63.878333 0.000000 80.512238
RightHand 4.661297 -0.000000 -52.801370
RightHandThumb1 -24.326973 -0.000000 -32.862282
LeftUpLeg -80.181163 34.205906 3.414058
LeftLeg -5.389523 -0.000000 0.000000
LeftFoot -12.298308 16.939112 -24.277474
LeftToeBase 32.420841 -0.000000 -0.000000
RightUpLeg -85.978043 -34.709830 1.316983
RightLeg -5.399934 -0.000000 0.000000
RightFoot -6.084980 -3.618258 32.291929
RightToeBase 28.721552 -0.000000 -0.000000
619
root 19.264878 28.662438 -15.671772 -100.000811 2.431646 -180.175033
Spine 65.757827 1.642273 -1.743201
Head 186.458584 1.229223 185.068473
LeftShoulder 25.920090 -48.701616 12.615605
LeftArm 12.462438 12.164526 -4.272989
LeftForeArm 49.009567 -0.000000 76.465381
LeftHand 6.542474 -0.000000 51.403929
LeftHandThumb1 -26.253704 0.000000 33.147579
RightShoulder 17.441978 7.147125 -25.335897
RightArm 3.370788 34.647191 5.328467
RightForeArm -63.851032 -0.000000 79.563332
RightHand 4.877747 -0.000000 -53.484295
RightHandThumb1 -24.326973 -0.000000 -32.862282
LeftUpLeg -80.119018 34.233061 3.421574
LeftLeg -5.382797 -0.000000 0.000000
LeftFoot -12.260402 16.943384 -24.291372
LeftToeBase 32.425138 -0.000000 -0.000000
RightUpLeg -85.907872 -34.695776 1.183295
RightLeg -5.369693 -0.000000 0.000000
RightFoot -6.078363 -3.565739 32.316811
RightToeBase 28.728897 -0.000000 -0.000000
620
root 19.269861 28.660027 -15.659006 -100.102705 2.476342 -180.177899
Spine 65.847495 1.644951 -1.774822
Head 186.275429 1.190017 185.071706
LeftShoulder 25.632080 -48.181719 12.729075
LeftArm 12.721590 12.864329 -4.018290
LeftForeArm 48.862590 -0.000000 75.789589
LeftHand 7.374691 -0.000000 51.846575
LeftHandThumb1 -26.253704 0.000000 33.147579
RightShoulder 17.278177 6.545901 -25.156631
RightArm 3.805241 33.973631 5.191553
RightForeArm -63.773062 -0.000000 78.424335
RightHand 5.122699 -0.000000 -54.315386
RightHandThumb1 -24.326973 -0.000000 -32.862282
LeftUpLeg -80.004633 34.239157 3.445968
LeftLeg -5.396184 -0.000000 0.000000
LeftFoot -12.229040 16.950505 -24.312243
LeftToeBase 32.456590 -0.000000 -0.000000
RightUpLeg -85.800424 -34.698475 1.034863
RightLeg -5.349308 -0.000000 0.000000
RightFoot -6.068464 -3.489362 32.365208
RightToeBase 28.586113 -0.000000 -0.000000
621
root 19.275708 28.656928 -15.645442 -100.171859 2.508020 -180.168522
Spine 65.906290 1.639357 -1.778731
Head 186.151489 1.159088 185.035612
LeftShoulder 25.360836 -47.762287 12.790668
LeftArm 13.002790 13.701053 -3.836032
LeftForeArm 48.945237 -0.000000 75.052501
LeftHand 7.857042 -0.000000 52.721595
LeftHandThumb1 -26.253704 0.000000 33.147579
RightShoulder 17.139141 6.123090 -25.045840
RightArm 4.159238 33.233361 5.183490
RightForeArm -63.614212 -0.000000 77.420380
RightHand 5.899511 -0.000000 -54.428188
RightHandThumb1 -24.326973 -0.000000 -32.862282
LeftUpLeg -79.924307 34.258473 3.463766
LeftLeg -5.428396 -0.000000 0.000000
LeftFoot -12.185270 16.988812 -24.319456
LeftToeBase 32.493958 -0.000000 -0.000000
RightUpLeg -85.700382 -34.686283 0.883140
RightLeg -5.343518 -0.000000 0.000000
RightFoot -6.069673 -3.484754 32.413717
RightToeBase 28.544828 -0.000000 -0.000000
